<?xml version="1.0" standalone="no"?>
<!DOCTYPE svg PUBLIC "-//W3C//DTD SVG 20010904//EN"
 "http://www.w3.org/TR/2001/REC-SVG-20010904/DTD/svg10.dtd">
<svg version="1.0" xmlns="http://www.w3.org/2000/svg"
 width="512.000000pt" height="512.000000pt" viewBox="0 0 512.000000 512.000000"
 preserveAspectRatio="xMidYMid meet">

<g transform="translate(0.000000,512.000000) scale(0.100000,-0.100000)"
fill="#5B0080" stroke="none">
<path d="M2846 5105 c-22 -8 -54 -29 -72 -47 -31 -32 -1853 -2778 -1890 -2848
-11 -22 -18 -56 -18 -92 1 -75 40 -142 104 -178 l45 -25 400 -5 c360 -4 403
-7 426 -23 25 -16 40 -40 53 -81 7 -20 -265 -1442 -289 -1515 -31 -94 -9 -182
61 -239 88 -73 198 -68 280 11 36 36 2231 2898 2276 2967 22 35 40 131 32 166
-20 83 -88 156 -158 169 -17 4 -239 9 -493 13 -448 7 -462 8 -490 28 -15 12
-36 34 -45 51 -17 28 -16 59 18 704 19 371 38 698 41 727 16 156 -132 270
-281 217z"/>
</g>
</svg>
